<svg width="32" height="32" viewBox="0 0 32 32" fill="none" xmlns="http://www.w3.org/2000/svg">
<path fill-rule="evenodd" clip-rule="evenodd" d="M2.99535 28.134C2.83107 27.483 2.76423 26.811 2.79703 26.1402L2.78695 25.1906C1.86617 25.0937 0.95877 24.8954 0.0811024 24.5992C0.0115013 24.4139 -0.013829 24.2148 0.00715384 24.0179C-0.013829 23.821 0.0115013 23.6219 0.0811024 23.4367C0.96055 23.1352 1.87014 22.9312 2.79367 22.8284L2.82056 17.0835C1.88836 16.9876 0.969603 16.7881 0.0811024 16.4887C0.0115013 16.3035 -0.013829 16.1044 0.00715384 15.9075C-0.013829 15.7106 0.0115013 15.5115 0.0811024 15.3262C0.979837 15.0188 1.91 14.8137 2.85417 14.7146L2.89451 9.46978V8.97639C1.9374 8.88346 0.993692 8.68283 0.0811024 8.37824C0.0115013 8.19299 -0.013829 7.99389 0.00715384 7.79699C-0.013829 7.60009 0.0115013 7.40099 0.0811024 7.21574C0.99853 6.899 1.94941 6.69034 2.91468 6.59394V6.13097C2.90186 5.51923 2.92994 4.90731 2.99871 4.29935C3.16946 3.24825 3.66159 2.27672 4.40672 1.51971C5.15186 0.762696 6.113 0.257795 7.15664 0.0751456C7.48987 0.0199717 7.82736 -0.00491074 8.16503 0.000799665H8.99527L10.6524 0.0278346L17.291 0.139354L23.9161 0.271149L27.2337 0.345495L28.8908 0.386047C28.9922 0.389408 29.0799 0.390541 29.1668 0.391661C29.3418 0.39392 29.513 0.396131 29.7849 0.416461C30.1884 0.464399 30.5669 0.638108 30.8672 0.913228C30.9229 0.961902 30.9747 1.01502 31.0219 1.07206C31.1349 1.19648 31.2185 1.34505 31.2662 1.50659C31.3139 1.66814 31.3246 1.83846 31.2975 2.00476C31.237 2.25821 31.0824 2.37649 30.9277 2.37649C30.6224 2.28717 30.3484 2.11257 30.1378 1.87297C29.889 1.63268 29.7263 1.63926 29.0968 1.66475L29.0454 1.66683L27.3883 1.704L24.0707 1.77835L17.4389 1.91352L10.8036 2.02504L9.14317 2.05207C8.64046 2.04275 8.13764 2.06306 7.6373 2.1129C7.23585 2.17875 6.85199 2.32632 6.50925 2.54655C6.16651 2.76678 5.8721 3.05504 5.64405 3.39368C5.41929 3.73088 5.26808 4.11209 5.20036 4.51225C5.18036 4.71781 5.17811 4.92473 5.19364 5.13067V5.96538V6.57704C6.15321 6.66621 7.09945 6.86577 8.01377 7.17181C8.08357 7.36289 8.10887 7.56751 8.08772 7.76996C8.10816 7.97239 8.08288 8.17686 8.01377 8.36811C7.1037 8.67286 6.16207 8.8724 5.20708 8.96287V9.30081L5.24742 14.7078C6.18165 14.8028 7.10261 15.0012 7.9936 15.2992C8.06341 15.4903 8.0887 15.6949 8.06755 15.8973C8.08799 16.0998 8.06272 16.3042 7.9936 16.4955C7.10258 16.7927 6.18158 16.9899 5.24742 17.0835L5.29448 22.6831V22.8453C6.21717 22.9382 7.12685 23.1332 8.00705 23.4266C8.07685 23.6176 8.10215 23.8223 8.08099 24.0247C8.10144 24.2271 8.07616 24.4316 8.00705 24.6228C7.12538 24.9157 6.21476 25.1117 5.29112 25.2075V26.0185V26.8127C5.29657 27.0053 5.32249 27.1967 5.36843 27.3838C5.45715 27.7579 5.62321 28.1091 5.85581 28.4145C6.08617 28.7228 6.37729 28.9801 6.71099 29.1702C7.0447 29.3604 7.41381 29.4793 7.79528 29.5195H8.08772H10.9919L17.6304 29.5364L24.2657 29.5871L27.5866 29.6209L29.2437 29.6412H29.6034C29.629 29.6447 29.6551 29.6447 29.6807 29.6412C29.732 29.6237 29.7775 29.5921 29.8118 29.55L30.353 3.52886V3.37341C30.363 2.81919 30.6185 2.37987 30.9311 2.37987C31.2437 2.37987 31.5092 2.81919 31.5092 3.37341L31.8017 16.7151L31.9294 23.3894L31.9765 26.7248L32 28.3942V29.2289V29.4486C31.9983 29.5742 31.9882 29.6995 31.9697 29.8237C31.9282 30.0706 31.85 30.3098 31.7378 30.5334C31.5141 30.9915 31.1516 31.3666 30.7025 31.6046C30.4812 31.7246 30.2415 31.8068 29.9933 31.8479C29.8701 31.8703 29.7454 31.8827 29.6202 31.8851H29.3984L27.7244 31.8885L24.4068 31.9223L17.7817 31.9561L11.1431 31.9865C10.7624 31.9865 10.3975 31.9899 10.0334 31.9933C9.3077 32 8.58534 32.0067 7.74823 31.9865C6.65541 31.9226 5.60977 31.5169 4.75758 30.8262C3.90538 30.1354 3.28925 29.1941 2.99535 28.134ZM11.5162 20.642C11.7242 19.5372 12.1844 18.496 12.8608 17.6005C13.6519 16.5577 14.7006 15.741 15.9027 15.2316C15.6536 15.0724 15.4205 14.8891 15.207 14.6841C14.7407 14.235 14.3678 13.6972 14.1098 13.102C13.8519 12.5068 13.7141 11.8661 13.7045 11.2169C13.6944 10.5459 13.817 9.87951 14.0651 9.25647C14.3132 8.63344 14.6819 8.06614 15.1498 7.58748C15.6248 7.10126 16.1908 6.71444 16.8153 6.44936C17.4398 6.18427 18.1103 6.04617 18.7881 6.04303C19.466 6.03989 20.1377 6.17177 20.7646 6.43105C21.3915 6.69034 21.9611 7.07189 22.4405 7.55369C22.9134 8.02768 23.288 8.5914 23.5425 9.21213C23.7969 9.83286 23.9262 10.4982 23.9228 11.1696C23.921 11.8204 23.7902 12.4643 23.5379 13.0637C23.2857 13.6631 22.9172 14.206 22.4539 14.6605C22.2337 14.8775 21.9927 15.0722 21.7346 15.2417C22.9249 15.7378 23.9671 16.5353 24.7598 17.5566C25.4472 18.4486 25.9169 19.4904 26.1312 20.598C26.3046 21.6384 26.3046 22.7005 26.1312 23.7408V23.7746C26.1211 23.8963 25.8656 23.9943 25.553 23.9943C25.2404 23.9943 24.9749 23.8963 24.9749 23.7746C24.9295 22.8657 24.7598 21.9674 24.4707 21.1049C24.1783 20.3179 23.7275 19.6 23.1463 18.9962C22.4432 18.2609 21.5658 17.7172 20.5965 17.4162C19.6272 17.1151 18.5977 17.0665 17.6045 17.2749C16.6114 17.4833 15.6872 17.9419 14.9186 18.6077C14.15 19.2735 13.5622 20.1246 13.2103 21.0813C12.9183 21.9429 12.7486 22.8417 12.7061 23.751V23.7848C12.686 23.9098 12.4272 24.0044 12.1112 24.0044C11.7952 24.0044 11.5364 23.9098 11.5162 23.7848C11.3459 22.7442 11.3459 21.6826 11.5162 20.642ZM16.8445 9.33546C16.297 9.83435 15.955 10.5212 15.8859 11.2609L15.8826 11.271C15.8203 12.0091 16.0065 12.7468 16.4113 13.3657C16.816 13.9847 17.4158 14.449 18.1145 14.6841C18.3565 14.6504 18.575 14.6504 18.8103 14.6504C19.0456 14.6504 19.2775 14.6504 19.5128 14.6672C20.2127 14.4411 20.8166 13.9849 21.2275 13.3719C21.6384 12.759 21.8324 12.025 21.7783 11.2879C21.7159 10.5476 21.3802 9.85767 20.8372 9.35378C20.2942 8.84989 19.5833 8.56857 18.8444 8.56518C18.1055 8.56179 17.3921 8.83658 16.8445 9.33546Z" fill="url(#paint0_linear)"/>
<defs>
<linearGradient id="paint0_linear" x1="0" y1="16" x2="32" y2="16" gradientUnits="userSpaceOnUse">
<stop stop-color="#56AB2F"/>
<stop offset="1" stop-color="#93D642"/>
</linearGradient>
</defs>
</svg>
