<svg width="32" height="33" viewBox="0 0 32 33" fill="none" xmlns="http://www.w3.org/2000/svg">
<path d="M12.1462 1.54529C10.7566 0.700922 9.1704 0.234332 7.54489 0.191753L3.29591 0.149891C2.96134 0.146955 2.63884 0.274753 2.3971 0.506067C2.15536 0.737381 2.01348 1.05393 2.00168 1.38831V1.44063C1.9705 3.08965 2.37481 4.71771 3.17381 6.16056C3.98917 7.59065 5.17658 8.77324 6.60998 9.58278C8.01917 10.3792 9.62162 10.7692 11.2392 10.7096C12.5858 10.6433 13.887 10.5421 15.2056 10.4409C14.9126 12.8806 14.7196 15.3225 14.6265 17.7668C13.9508 16.8636 13.109 16.0975 12.1462 15.5097C10.7566 14.6654 9.1704 14.1988 7.54489 14.1562L3.29591 14.1143C2.96134 14.1114 2.63884 14.2392 2.3971 14.4705C2.15536 14.7018 2.01348 15.0184 2.00168 15.3527V15.4051C1.9705 17.0541 2.37481 18.6822 3.17381 20.125C3.98917 21.5551 5.17658 22.7377 6.60998 23.5472C8.01917 24.3436 9.62162 24.7337 11.2392 24.674C12.3904 24.6182 13.5102 24.5345 14.6335 24.4473C14.7312 26.9485 14.9265 29.4497 15.237 31.9475C15.258 32.0626 15.5266 32.1498 15.8545 32.1498C16.1824 32.1498 16.451 32.0626 16.4719 31.9475V31.9161C17.0591 27.1726 17.2586 22.3892 17.0685 17.6133H17.2987L19.9814 17.4144C20.1593 17.4144 20.2988 17.1354 20.2988 16.8109C20.2988 16.4865 20.1593 16.2214 19.9814 16.2109H19.929L17.2569 16.0121H16.9917C16.9917 15.8516 16.9917 15.6876 16.9673 15.5272C17.3157 14.0714 18.0864 12.751 19.1825 11.7317C20.3067 10.6972 21.7219 10.0334 23.2361 9.83046C23.6189 9.7792 24.0047 9.75356 24.3908 9.75371H25.7304L27.1014 9.73278C26.9398 11.1343 26.3751 12.4588 25.4757 13.5457C24.2469 15.0228 22.4995 15.9739 20.5919 16.2039C20.4279 16.2318 20.2988 16.5109 20.2988 16.8354C20.2988 17.1598 20.4453 17.4284 20.6477 17.4389H20.7C21.8672 17.4616 23.0269 17.2469 24.1087 16.808C25.1905 16.369 26.1719 15.7149 26.9932 14.8853C27.8429 14.037 28.5157 13.0286 28.9726 11.9183C29.4295 10.8081 29.6614 9.61819 29.655 8.41762C29.6496 8.08808 29.5163 7.77354 29.2832 7.54049C29.0502 7.30744 28.7356 7.17413 28.4061 7.16874L25.7199 7.13037H24.3873C23.8796 7.12807 23.3724 7.16305 22.8698 7.23502C20.8121 7.53743 18.9147 8.51988 17.4801 10.0258C17.1524 10.3805 16.8504 10.7582 16.5766 11.1561C16.5347 10.7863 16.4999 10.413 16.4545 10.0398C16.4545 9.92465 16.1789 9.83395 15.8545 9.83395C16.1789 9.83395 16.444 9.69092 16.4545 9.4851V9.43277C16.4955 7.85495 16.1186 6.29434 15.362 4.90915C14.6054 3.52396 13.496 2.36346 12.1462 1.54529ZM7.75769 7.65713C6.92679 7.09615 6.22252 6.36745 5.6902 5.5179C5.15788 4.66835 4.8093 3.71678 4.66688 2.7244L7.53443 2.69649C8.7577 2.68265 9.96629 2.96386 11.0578 3.51629C12.1363 4.07578 13.0691 4.87981 13.7814 5.86411C14.4937 6.84842 14.9659 7.98571 15.1603 9.18509L11.2392 8.89903C9.99115 8.79162 8.79196 8.36385 7.75769 7.65713ZM11.2462 22.853C9.99572 22.7468 8.79398 22.319 7.75769 21.6111C6.92679 21.0501 6.22252 20.3214 5.6902 19.4719C5.15788 18.6223 4.8093 17.6708 4.66688 16.6784L7.53443 16.6505C8.7577 16.6366 9.96629 16.9178 11.0578 17.4703C12.6024 18.2768 13.8311 19.5791 14.5463 21.1681C14.5463 21.8134 14.5463 22.4553 14.5742 23.0972L11.2462 22.853Z" fill="url(#paint0_linear)"/>
<defs>
<linearGradient id="paint0_linear" x1="2" y1="16.1498" x2="29.6551" y2="16.1498" gradientUnits="userSpaceOnUse">
<stop stop-color="#56AB2F"/>
<stop offset="1" stop-color="#93D642"/>
</linearGradient>
</defs>
</svg>
