<svg width="32" height="32" viewBox="0 0 32 32" fill="none" xmlns="http://www.w3.org/2000/svg">
<path fill-rule="evenodd" clip-rule="evenodd" d="M16.0557 0.00135719C11.8804 -0.0528264 7.85053 1.51726 4.83326 4.37374C1.86245 7.18507 0.128799 11.0403 0.00698958 15.1063C-0.0101492 15.6049 0.21951 15.995 0.562285 15.995C0.25036 15.995 -0.00672149 16.3783 0.00013401 16.8837V17.0126C0.160447 21.0811 1.92938 24.9245 4.92581 27.7146C7.99228 30.5567 12.0636 32.0939 16.2637 31.9956C20.4639 31.8972 24.4572 30.1712 27.3844 27.1889C30.3579 24.1825 32.0159 20.1386 31.9999 15.9318C31.9838 11.7251 30.295 7.69367 27.2987 4.70956C24.3254 1.7339 20.2843 0.0416065 16.0557 0.00135719ZM0.562285 15.995C0.90506 15.995 1.16214 15.6287 1.19642 15.1741V15.0452C1.54769 11.3807 3.31465 7.99168 6.12895 5.58472C8.89524 3.22288 12.4755 2.00787 16.1243 2.19264C19.7044 2.3849 23.0727 3.93215 25.5319 6.51409C27.9912 9.09604 29.3529 12.5149 29.3353 16.063C29.3177 19.611 27.922 23.0165 25.4373 25.5744C22.9526 28.1323 19.569 29.6467 15.9872 29.8041C12.3433 29.9454 8.78414 28.6944 6.04668 26.3103C3.25575 23.8803 1.52064 20.4778 1.20327 16.8125C1.15871 16.3546 0.87421 15.995 0.562285 15.995ZM8.66199 9.64186C9.12352 9.42376 9.62797 9.30903 10.1394 9.30586C10.6515 9.30612 11.1572 9.41812 11.6205 9.63389C12.0838 9.84965 12.4933 10.1639 12.8199 10.5541C13.1285 10.9127 13.3506 11.336 13.4694 11.792C13.5881 12.2481 13.6005 12.7249 13.5055 13.1864C13.4883 13.2441 13.2244 13.2814 12.9022 13.2814C12.6915 13.3018 12.4788 13.2834 12.2749 13.2271C12.0949 12.814 11.7966 12.4621 11.4168 12.2149C11.037 11.9676 10.5923 11.8359 10.1377 11.8359C9.6831 11.8359 9.23845 11.9676 8.85864 12.2149C8.47884 12.4621 8.18052 12.814 8.0005 13.2271C7.8087 13.2853 7.6073 13.306 7.4075 13.2882C7.08872 13.2915 6.82136 13.2475 6.82136 13.1932C6.72054 12.7356 6.72648 12.2613 6.83874 11.8064C6.951 11.3514 7.16662 10.9278 7.4692 10.5677C7.7932 10.1761 8.20046 9.85997 8.66199 9.64186ZM19.8274 12.2047C19.4476 12.4519 19.1493 12.8038 18.9693 13.2169C18.7782 13.2785 18.5768 13.3027 18.3763 13.2882C18.0575 13.2915 17.7902 13.2474 17.7902 13.1932C17.6893 12.7356 17.6953 12.2613 17.8075 11.8064C17.9198 11.3514 18.1354 10.9278 18.438 10.5677C18.7638 10.1788 19.1721 9.86548 19.6339 9.65002C20.0956 9.43457 20.5996 9.32221 21.1101 9.32092C21.6207 9.31962 22.1252 9.42942 22.5881 9.64253C23.051 9.85564 23.4609 10.1669 23.7887 10.5541C24.0973 10.9127 24.3194 11.336 24.4382 11.792C24.5569 12.2481 24.5693 12.7249 24.4743 13.1864C24.4571 13.2441 24.1932 13.2814 23.871 13.2814C23.6597 13.2985 23.447 13.2766 23.2437 13.2169C23.0637 12.8038 22.7654 12.4519 22.3856 12.2047C22.0058 11.9575 21.5611 11.8257 21.1065 11.8257C20.6519 11.8257 20.2072 11.9575 19.8274 12.2047ZM10.5233 18.8274C10.8318 18.7528 11.0992 18.7358 11.13 18.7935C13.1627 22.44 18.0952 22.44 20.121 18.8003C20.1587 18.746 20.4295 18.763 20.7414 18.8376C21.0534 18.9122 21.2899 19.0343 21.2899 19.1191C21.1527 20.4563 20.5129 21.6936 19.4972 22.5858C18.436 23.5218 17.0642 24.0391 15.6427 24.0391C14.2212 24.0391 12.8493 23.5218 11.7882 22.5858C10.7723 21.6958 10.1302 20.4613 9.9886 19.1259V19.1022C9.97832 19.0242 10.2148 18.902 10.5233 18.8274Z" fill="url(#paint0_linear)"/>
<defs>
<linearGradient id="paint0_linear" x1="0" y1="16" x2="32" y2="16" gradientUnits="userSpaceOnUse">
<stop stop-color="#56AB2F"/>
<stop offset="1" stop-color="#93D642"/>
</linearGradient>
</defs>
</svg>
